<svg aria-hidden="true" style="position: absolute; width: 0; height: 0; overflow: hidden;" version="1.1" xmlns="http://www.w3.org/2000/svg" xmlns:xlink="http://www.w3.org/1999/xlink">
<defs>
<symbol id="facebook" viewBox="0 0 32 32">
<path d="M18.478 32v-14.596h4.897l0.735-5.69h-5.632v-3.632c0-1.647 0.455-2.769 2.82-2.769l3.010-0.001v-5.089c-0.521-0.068-2.308-0.223-4.388-0.223-4.343 0-7.317 2.651-7.317 7.519v4.196h-4.912v5.69h4.912v14.596h5.874z"></path>
</symbol>
<symbol id="instagram" viewBox="0 0 32 32">
<path d="M31.969 9.408c-0.075-1.7-0.35-2.869-0.744-3.882-0.406-1.075-1.031-2.038-1.85-2.838-0.8-0.813-1.769-1.444-2.832-1.844-1.019-0.394-2.182-0.669-3.882-0.744-1.713-0.081-2.257-0.1-6.601-0.1s-4.888 0.019-6.595 0.094c-1.7 0.075-2.869 0.35-3.882 0.744-1.075 0.406-2.038 1.031-2.838 1.85-0.813 0.8-1.444 1.769-1.844 2.832-0.394 1.019-0.669 2.182-0.744 3.882-0.081 1.713-0.1 2.257-0.1 6.601s0.019 4.888 0.094 6.595c0.075 1.7 0.35 2.869 0.744 3.882 0.406 1.075 1.038 2.038 1.85 2.838 0.8 0.813 1.769 1.444 2.832 1.844 1.019 0.394 2.182 0.669 3.882 0.744 1.706 0.075 2.25 0.094 6.595 0.094s4.888-0.019 6.595-0.094c1.7-0.075 2.869-0.35 3.882-0.744 2.151-0.831 3.851-2.532 4.682-4.682 0.394-1.019 0.669-2.182 0.744-3.882 0.075-1.707 0.094-2.25 0.094-6.595s-0.006-4.888-0.081-6.595zM29.087 22.473c-0.069 1.563-0.331 2.407-0.55 2.969-0.538 1.394-1.644 2.5-3.038 3.038-0.563 0.219-1.413 0.481-2.969 0.55-1.688 0.075-2.194 0.094-6.464 0.094s-4.782-0.019-6.464-0.094c-1.563-0.069-2.407-0.331-2.969-0.55-0.694-0.256-1.325-0.663-1.838-1.194-0.531-0.519-0.938-1.144-1.194-1.838-0.219-0.563-0.481-1.413-0.55-2.969-0.075-1.688-0.094-2.194-0.094-6.464s0.019-4.782 0.094-6.464c0.069-1.563 0.331-2.407 0.55-2.969 0.256-0.694 0.663-1.325 1.2-1.838 0.519-0.531 1.144-0.938 1.838-1.194 0.563-0.219 1.413-0.481 2.969-0.55 1.688-0.075 2.194-0.094 6.464-0.094 4.276 0 4.782 0.019 6.464 0.094 1.563 0.069 2.407 0.331 2.969 0.55 0.694 0.256 1.325 0.662 1.838 1.194 0.531 0.519 0.938 1.144 1.194 1.838 0.219 0.563 0.481 1.413 0.55 2.969 0.075 1.688 0.094 2.194 0.094 6.464s-0.019 4.77-0.094 6.458z"></path>
<path d="M16.059 7.783c-4.538 0-8.22 3.682-8.22 8.22s3.682 8.22 8.22 8.22c4.538 0 8.22-3.682 8.22-8.22s-3.682-8.22-8.22-8.22zM16.059 21.335c-2.944 0-5.332-2.388-5.332-5.332s2.388-5.332 5.332-5.332c2.944 0 5.332 2.388 5.332 5.332s-2.388 5.332-5.332 5.332z"></path>
<path d="M26.524 7.458c0 1.060-0.859 1.919-1.919 1.919s-1.919-0.859-1.919-1.919c0-1.060 0.859-1.919 1.919-1.919s1.919 0.859 1.919 1.919z"></path>
</symbol>
<symbol id="pinterest" viewBox="0 0 32 32">
<path d="M16.75 0c-8.733 0-13.137 6.261-13.137 11.482 0 3.161 1.197 5.973 3.763 7.022 0.421 0.172 0.799 0.006 0.921-0.46 0.085-0.323 0.285-1.136 0.375-1.475 0.123-0.461 0.075-0.623-0.264-1.024-0.74-0.873-1.213-2.003-1.213-3.605 0-4.645 3.475-8.803 9.050-8.803 4.935 0 7.647 3.016 7.647 7.044 0 5.3-2.345 9.772-5.827 9.772-1.923 0-3.362-1.59-2.901-3.541 0.552-2.328 1.622-4.842 1.622-6.522 0-1.504-0.807-2.76-2.479-2.76-1.966 0-3.545 2.034-3.545 4.757 0 1.735 0.586 2.909 0.586 2.909s-2.012 8.523-2.364 10.016c-0.703 2.972-0.105 6.616-0.055 6.984 0.029 0.218 0.309 0.27 0.436 0.105 0.182-0.237 2.523-3.127 3.319-6.015 0.225-0.818 1.292-5.052 1.292-5.052 0.639 1.218 2.505 2.291 4.49 2.291 5.908 0 9.918-5.387 9.918-12.597 0-5.452-4.618-10.53-11.637-10.53z"></path>
</symbol>
<symbol id="twitter" viewBox="0 0 32 32">
<path d="M11.938 29.128c-1.384 0-2.808-0.112-4.241-0.337-2.524-0.396-5.078-1.716-5.801-2.111l-1.896-1.037 2.053-0.675c2.244-0.738 3.609-1.196 5.299-1.912-1.692-0.819-2.996-2.293-3.624-4.198l-0.478-1.45 0.392 0.060c-0.371-0.374-0.665-0.754-0.892-1.1-0.808-1.228-1.236-2.728-1.145-4.014l0.090-1.265 0.758 0.293c-0.32-0.604-0.551-1.248-0.686-1.924-0.331-1.647-0.054-3.398 0.78-4.928l0.66-1.211 0.883 1.060c2.791 3.353 6.327 5.342 10.523 5.924-0.171-1.181-0.043-2.322 0.382-3.344 0.495-1.19 1.375-2.199 2.545-2.918 1.299-0.799 2.875-1.186 4.437-1.090 1.657 0.102 3.161 0.723 4.356 1.797 0.584-0.152 1.013-0.313 1.594-0.532 0.35-0.132 0.746-0.281 1.242-0.452l1.828-0.63-1.192 3.405c0.079-0.007 0.16-0.012 0.244-0.016l1.952-0.088-1.154 1.577c-0.066 0.090-0.083 0.116-0.106 0.151-0.093 0.14-0.209 0.314-1.792 2.429-0.396 0.53-0.594 1.219-0.558 1.942 0.14 2.748-0.197 5.234-1.003 7.39-0.762 2.039-1.943 3.789-3.51 5.2-1.939 1.746-4.411 2.942-7.349 3.553-1.441 0.3-2.988 0.45-4.59 0.45z"></path>
</symbol>
<symbol id="youtube" viewBox="0 0 32 32">
<path d="M30.64 7.12c-0.868-1.544-1.81-1.828-3.728-1.936-1.916-0.13-6.734-0.184-10.908-0.184-4.182 0-9.002 0.054-10.916 0.182-1.914 0.11-2.858 0.392-3.734 1.938-0.894 1.542-1.354 4.198-1.354 8.874 0 0.004 0 0.006 0 0.006 0 0.004 0 0.006 0 0.006v0.004c0 4.656 0.46 7.332 1.354 8.858 0.876 1.544 1.818 1.824 3.732 1.954 1.916 0.112 6.736 0.178 10.918 0.178 4.174 0 8.992-0.066 10.91-0.176 1.918-0.13 2.86-0.41 3.728-1.954 0.902-1.526 1.358-4.202 1.358-8.858 0 0 0-0.006 0-0.010 0 0 0-0.004 0-0.006 0-4.678-0.456-7.334-1.36-8.876zM12 22v-12l10 6-10 6z"></path>
</symbol>
</defs>
</svg>
